<?xml version="1.0" standalone="no"?>
<!DOCTYPE svg PUBLIC "-//W3C//DTD SVG 1.1//EN" "http://www.w3.org/Graphics/SVG/1.1/DTD/svg11.dtd" >
<svg xmlns="http://www.w3.org/2000/svg" xmlns:xlink="http://www.w3.org/1999/xlink" version="1.1">
<metadata></metadata>
<defs>
<font id="groundayregular" horiz-adv-x="702" >
<font-face units-per-em="2048" ascent="1368" descent="-680" />
<missing-glyph horiz-adv-x="286" />
<glyph horiz-adv-x="0" />
<glyph unicode="&#xd;" horiz-adv-x="286" />
<glyph horiz-adv-x="0" />
<glyph horiz-adv-x="0" />
<glyph unicode=" "  horiz-adv-x="286" />
<glyph unicode="&#x09;" horiz-adv-x="286" />
<glyph unicode="&#xa0;" horiz-adv-x="286" />
<glyph unicode="!" horiz-adv-x="434" d="M94 0v154h240v-154h-240zM94 266v1168h240v-1168h-240z" />
<glyph unicode="#" horiz-adv-x="1269" d="M43 457v149l289 -2l41 256l-330 4v146l354 -2l70 426h207l-70 -426h158l72 426h206l-71 -430h260v-148h-285l-43 -256l328 -6v-145l-352 4l-72 -453h-207l74 453l-158 2l-76 -455h-207l76 457h-264zM539 602l157 -2l41 258l-157 2z" />
<glyph unicode="$" horiz-adv-x="913" d="M61 289v168h238v-178q0 -55 34 -90t83 -35h84q47 0 81 35q33 34 33 90q0 81 -30 150q-29 66 -79 118q-44 45 -108 95q-47 36 -118 95q-60 49 -108 105q-50 58 -79 135q-31 82 -31 176q0 123 87 211t208 88h27v84h149v-84q118 0 203 -88q86 -89 86 -211v-170h-237v182 q0 51 -35 86t-82 35h-51q-47 0 -82 -35t-35 -86q0 -95 41 -175q40 -80 102 -129q123 -99 135 -109q86 -71 134 -115q61 -55 102 -147q41 -93 41 -201q0 -125 -87 -213t-208 -88h-27v-138h-149v138h-27q-121 0 -208 88t-87 213z" />
<glyph unicode="%" horiz-adv-x="1083" d="M63 887v420q0 60 41 103q40 42 101 42h100q60 0 102 -42t42 -103v-420q0 -62 -42 -104t-102 -42h-100q-61 0 -101 42q-41 43 -41 104zM178 881q0 -24 18 -42t40 -18h38q24 0 41 17t17 43v434q0 22 -17 39q-16 16 -41 16h-38q-23 0 -40 -16q-18 -16 -18 -39v-434zM279 0 l374 1434h148l-375 -1434h-147zM633 127v422q0 59 42 102t101 43h98q62 0 103 -42q41 -43 41 -103v-422q0 -60 -41 -103q-41 -42 -103 -42h-98q-59 0 -101 43q-42 44 -42 102zM750 121q0 -23 16 -40q16 -18 39 -18h41q22 0 40 18q17 17 17 40v434q0 25 -17 41t-40 16h-41 q-23 0 -39 -16t-16 -41v-434z" />
<glyph unicode="&#x26;" horiz-adv-x="1038" d="M92 293v211v84q0 122 92 211q-92 89 -92 211v129q0 74 35 141q68 136 207 164q24 8 61 8h205q123 0 208 -88t85 -213v-172h-238v184q0 64 -31 85q-33 22 -94 22h-81q-64 0 -99 -53q-12 -33 -12 -54v-207q26 -75 111 -75h81h119v-150h-200q-84 0 -111 -76v-387 q0 -20 10 -49q22 -36 97 -56q74 -19 143 5q67 24 67 100v193v90v63l324 -79v-150l-86 18v-122q0 -123 -85 -211t-208 -88h-205q-54 0 -110 22q-107 44 -158 150q-35 67 -35 139z" />
<glyph unicode="(" horiz-adv-x="413" d="M35 717q0 397 237 788l84 -53q-222 -371 -223 -735q0 -371 223 -735l-84 -54q-242 398 -237 789z" />
<glyph unicode=")" horiz-adv-x="413" d="M53 -18q226 360 226 735q-4 379 -226 735l86 53q240 -397 240 -788q0 -396 -240 -789z" />
<glyph unicode="*" horiz-adv-x="538" d="M41 1114l143 82l-143 80l43 74l143 -80v164h84v-164l144 80l43 -74l-144 -80l144 -82l-43 -76l-144 84v-166h-84v166l-143 -84z" />
<glyph unicode="+" horiz-adv-x="905" d="M12 614v131h377v375h129v-375h375v-131h-375v-374h-129v374h-377z" />
<glyph unicode="," horiz-adv-x="454" d="M78 0v201h311v-201l-123 -291h-141l78 291h-125z" />
<glyph unicode="-" d="M102 446v168h494v-168h-494z" />
<glyph unicode="." horiz-adv-x="520" d="M102 0v199h312v-199h-312z" />
<glyph unicode="/" horiz-adv-x="589" d="M8 -18l477 1472h97l-478 -1472h-96z" />
<glyph unicode="0" horiz-adv-x="983" d="M94 283v868q0 123 86 212t209 89h203q121 0 208 -89t87 -212v-868q0 -125 -87 -213t-208 -88h-203q-124 0 -209 88q-86 89 -86 213zM330 268q0 -53 35 -86q33 -32 86 -32h81q51 0 84 32q35 33 35 86v895q0 48 -35 85q-34 36 -84 36h-81q-48 0 -85 -35q-36 -35 -36 -86 v-895z" />
<glyph unicode="1" horiz-adv-x="505" d="M41 1171v168q45 0 84 25q37 24 37 70h4h233v-27v-47v-1360h-237v1176q-30 -5 -121 -5z" />
<glyph unicode="2" horiz-adv-x="940" d="M84 0v147q0 133 57 249q56 113 139 201q90 95 162 167q84 84 140 184q57 102 57 215q0 50 -34 85q-35 36 -81 36h-47q-51 0 -86 -36q-35 -37 -35 -85v-184h-237v172q0 123 87 212t206 89h174q123 0 208 -88t85 -213q0 -95 -30 -184q-31 -91 -79 -155q-58 -77 -107 -130 q-65 -70 -118 -123q-62 -62 -108 -121q-50 -63 -80 -136q-31 -75 -33 -155h526v-147h-766z" />
<glyph unicode="3" horiz-adv-x="974" d="M82 281v79h237v-90q0 -63 32 -86q31 -22 93 -22h84q60 0 99 57q10 29 10 51v383q-12 34 -43 59q-29 23 -66 23h-200v146h116h84q83 0 109 75v207q0 33 -12 54q-37 51 -97 51h-84q-62 0 -93 -21q-32 -21 -32 -84v-182h-237v170q0 125 87 213t208 88h205q86 0 157 -46 t109 -126q37 -61 37 -139v-133q0 -122 -92 -211q92 -80 92 -211v-82v-213q0 -86 -54 -171q-52 -82 -137 -120q-56 -18 -112 -18h-205q-121 0 -208 87t-87 212z" />
<glyph unicode="4" horiz-adv-x="890" d="M20 356v148l433 930h51h119h88v-930h69h51v-148h-120v-356h-238v356h-453zM186 504h287v586z" />
<glyph unicode="5" horiz-adv-x="976" d="M88 281v79h238v-92q0 -54 34 -88q35 -35 84 -35h84q52 0 94 36t42 87v449q0 47 -33 79q-34 33 -79 40q-48 8 -93 2q-46 -6 -80 -35q-33 -29 -33 -72h-237v465v238h237h498v-152h-498v-330q85 51 180 58q100 8 183 -22q85 -30 139 -105q55 -76 55 -181v-421 q0 -121 -96 -210q-97 -89 -217 -89h-209q-123 0 -208 87q-85 86 -85 212z" />
<glyph unicode="6" horiz-adv-x="968" d="M94 281v282v371v219q0 126 85 212q85 87 210 87h160q123 0 210 -87t87 -212v-172h-240v182q0 52 -34 86q-35 35 -83 35h-40q-46 0 -81 -35q-34 -34 -34 -86v-383q86 48 180 55q93 7 178 -22q81 -28 137 -101t56 -177q0 -17 2 -129t2 -125q0 -123 -85 -211t-208 -88h-207 q-124 0 -209 88q-86 89 -86 211zM334 270q0 -50 34 -85t81 -35h83q50 0 84 35q35 37 35 85q0 16 -2 136t-2 139q0 70 -74 105q-73 34 -151 13q-77 -21 -88 -85v-308z" />
<glyph unicode="7" horiz-adv-x="712" d="M55 1286v148h49h388h188v-148l-342 -1286h-238l340 1286h-336h-49z" />
<glyph unicode="8" horiz-adv-x="987" d="M92 283v77v144v84q0 121 90 211q-76 68 -88 182h-2v170q0 125 87 213t208 88h6h199h8q121 0 208 -88t87 -213v-170h-2q-12 -114 -92 -182q94 -90 94 -211v-84v-144v-77q0 -123 -87 -212t-208 -89h-8h-199h-6q-121 0 -208 89t-87 212zM340 270q0 -32 8 -51q40 -55 101 -55 h8h73h9q58 0 98 55q10 26 10 51v387q-33 76 -108 76h-90q-38 0 -68 -21t-41 -55v-387zM340 954q10 -33 41 -54q30 -21 68 -21h8h73h9q74 0 108 75v209q0 34 -14 54q-30 47 -86 53h-17h-73h-19q-58 -6 -88 -53q-10 -26 -10 -54v-209z" />
<glyph unicode="9" horiz-adv-x="970" d="M80 1151q0 124 86 213q85 88 209 88h203q120 0 208 -88t88 -213v-281v-366v-221q0 -124 -88 -212q-89 -89 -208 -89h-162q-117 0 -204 89t-87 212v170h240v-185q0 -51 33 -85q35 -36 83 -36h35q52 0 86 36q35 37 35 85v385q-84 -47 -180 -54q-93 -7 -178 22 q-83 29 -138 102t-55 178q0 45 -3 127t-3 123zM319 1165q0 -16 1.5 -61.5t1.5 -74.5q2 -122 2 -140q0 -75 72 -106q72 -32 151 -9q78 22 90 84v307q0 48 -35 85q-34 36 -86 36h-82q-46 0 -81 -36q-34 -35 -34 -85z" />
<glyph unicode=":" horiz-adv-x="434" d="M102 0v199h312v-199h-312zM102 838v198h312v-198h-312z" />
<glyph unicode=";" horiz-adv-x="448" d="M66 0v201h311v-201l-123 -291h-141l77 291h-124zM66 838v198h311v-198h-311z" />
<glyph unicode="=" horiz-adv-x="1015" d="M102 446v129h881v-129h-881zM102 819v131h881v-131h-881z" />
<glyph unicode="?" horiz-adv-x="831" d="M33 979v172q0 124 86 213q85 88 209 88h172q123 0 208 -88t85 -213q0 -93 -29 -183q-30 -92 -69 -162q-8 -15 -82 -149q-41 -74 -71 -177q-31 -104 -32 -214h-238q0 140 29 256q29 114 71 190q37 67 84 140q42 66 70 143q29 79 29 168q0 48 -35 85q-34 36 -84 36h-47 q-49 0 -83 -36q-34 -35 -34 -85v-184h-239zM268 0v156h238v-156h-238z" />
<glyph unicode="@" horiz-adv-x="1660" d="M80 711q18 326 209 534q190 207 518 207q340 0 520 -248q141 -195 123 -438q-17 -230 -168 -344q-108 -80 -258 -70q-86 7 -145 32t-119 89q-27 -25 -62 -43q-43 -14 -75 -14q-92 0 -125 76q-31 65 -9 176q27 120 109 237q95 131 211 131q72 0 106 -65l13 30h127 l-170 -458q-6 -15 12 -33t56 -33q35 -14 79 -14q145 6 217 164q76 161 19 348q-63 212 -260 289q-89 34 -199 34q-253 0 -403 -162q-152 -164 -173 -415q-18 -212 91 -363q106 -148 275 -201q166 -52 367 -7q200 45 351 190h215q-124 -148 -287 -238q-161 -89 -325 -113 t-320 13t-275 126q-117 87 -187 241q-69 151 -58 342zM614 557q7 -43 45 -43q42 0 80 53q19 18 52 86q43 91 59 168q7 43 0 70q-6 35 -43 35q-70 0 -133 -117q-38 -77 -60 -176q-7 -43 0 -76z" />
<glyph unicode="A" horiz-adv-x="1069" d="M47 0l367 1434h239l369 -1434h-238l-122 465h-259l-118 -465h-238zM440 612h187l-92 359z" />
<glyph unicode="B" horiz-adv-x="989" d="M102 0v6v287v213v80v342v82v82v49v291v2h502q119 0 206 -87t87 -206v-131q0 -121 -92 -213q92 -86 92 -211v-80v-213q0 -119 -87 -206t-206 -87h-502zM340 164h119h82q48 0 83 35q33 33 33 84v223v108q0 50 -33 83q-34 34 -83 34h-201v-117v-108v-223v-119zM340 881h119 h82q50 0 83 33t33 83v154q0 51 -33 84q-35 35 -83 35h-82h-119v-119v-59v-95v-116z" />
<glyph unicode="C" horiz-adv-x="950" d="M94 283v868q0 123 87 212t210 89h203q121 0 208 -89t87 -212v-172h-240v184q0 51 -35 86t-82 35h-83q-47 0 -83 -36t-36 -85v-893q0 -49 36 -85q35 -35 83 -35h83q48 0 82 34q35 35 35 86v90h240v-77q0 -123 -87 -212t-208 -89h-203q-123 0 -210 89t-87 212z" />
<glyph unicode="D" horiz-adv-x="995" d="M102 0v293v846v295h500q120 0 209 -87q88 -87 88 -208v-846q0 -123 -87 -208q-86 -85 -210 -85h-500zM350 160h172q55 0 96 41t41 96v836q0 56 -41 97q-40 40 -96 40h-172v-1110z" />
<glyph unicode="E" horiz-adv-x="880" d="M102 0v150v569v147v418v150h238h494v-150h-494v-418h338v-147h-338v-569h494v-150h-494h-238z" />
<glyph unicode="F" horiz-adv-x="841" d="M102 0v147v420v148v569v150h240h492v-150h-492v-420h336v-147h-336v-717h-240z" />
<glyph unicode="G" horiz-adv-x="983" d="M94 283v868q0 123 87 212t208 89h205q120 0 209 -89q88 -88 88 -212v-184h-246v196q0 51 -32 86t-78 35h-86q-47 0 -80 -35t-33 -86v-895q0 -52 32 -87q31 -34 81 -34h86q47 0 78 34q32 35 32 87v394h-141v153h141h246v-153v-379q0 -124 -88 -212q-89 -89 -209 -89h-205 q-121 0 -208 88t-87 213z" />
<glyph unicode="H" horiz-adv-x="1093" d="M102 0v719v145v570h236v-570h410v570h241v-570v-145v-719h-241v719h-410v-719h-236z" />
<glyph unicode="I" horiz-adv-x="450" d="M102 0v1434h240v-1434h-240z" />
<glyph unicode="J" horiz-adv-x="907" d="M12 281v77h240v-94q0 -48 35 -83q34 -34 82 -34h84q50 0 84 34t34 83v201v45v924h236v-924v-45v-184q0 -125 -87 -212t-208 -87h-205q-121 0 -208 87t-87 212z" />
<glyph unicode="K" horiz-adv-x="1054" d="M102 0v596v4v834h240v-566q327 461 393 566h240l-357 -519l357 -915h-240l-286 719l-107 -119v-600h-240z" />
<glyph unicode="L" horiz-adv-x="690" d="M102 0v150v1284h240v-1284h336v-150h-336h-240z" />
<glyph unicode="M" horiz-adv-x="1294" d="M102 0v1434h238l305 -818l307 818h238v-1434h-238v827l-186 -471h-240l-186 471v-827h-238z" />
<glyph unicode="N" horiz-adv-x="1093" d="M102 0v1434h11h229h8l400 -897v897h239v-1434h-239l-408 920v-920h-240z" />
<glyph unicode="O" horiz-adv-x="983" d="M94 283v868q0 123 86 212t209 89h203q121 0 208 -89t87 -212v-868q0 -125 -87 -213t-208 -88h-203q-124 0 -209 88q-86 89 -86 213zM330 268q0 -53 35 -86q33 -32 86 -32h81q51 0 84 32q35 33 35 86v895q0 48 -35 85q-34 36 -84 36h-81q-48 0 -85 -35q-36 -35 -36 -86 v-895z" />
<glyph unicode="P" horiz-adv-x="923" d="M102 0v717v129v84v211v293h502q119 0 205 -86t86 -207v-211v-17v-67q0 -118 -86 -198q-85 -79 -205 -79h-264v-569h-238zM340 717h119h82q48 0 83 35q33 33 33 82v79v17v225q0 48 -33 81q-34 34 -83 34h-19h-63h-119v-115v-225v-96v-117z" />
<glyph unicode="Q" horiz-adv-x="997" d="M80 283v868q0 128 85 214q85 87 208 87h209q119 0 204 -88q86 -89 86 -213v-868q0 -114 -75 -201q28 -84 116 -88v-166h-63q-63 0 -113 20q-101 52 -143 134h-12h-209q-123 0 -208 88t-85 213zM315 268q0 -51 35 -86t84 -35h84q46 0 81 35q34 34 34 86v897q0 51 -34 85 t-81 34h-84q-49 0 -84 -35t-35 -84v-897z" />
<glyph unicode="R" horiz-adv-x="1015" d="M102 0v846v82v213v286v7h502q121 0 208 -87t87 -206v-213v-82q0 -85 -45 -154q-44 -68 -119 -106l203 -586h-240l-190 569h-168v-569h-238zM340 715h119h82q48 0 83 35q33 33 33 81v97v223q0 51 -33 84q-35 35 -83 35h-82h-119v-119v-223v-97v-116z" />
<glyph unicode="S" horiz-adv-x="954" d="M84 283v172h238v-185q0 -52 34 -86t84 -34h80q52 0 86 34q35 35 35 86q0 83 -31 154q-30 69 -80 119t-108 95q-63 49 -119 95q-54 45 -108 105q-50 56 -80 135q-31 82 -31 178q0 125 87 213t208 88h170q121 0 208 -88t87 -213v-172h-238v184q0 51 -35 86t-82 35h-49 q-49 0 -84 -35q-34 -34 -34 -86q0 -95 41 -174t103 -129q70 -57 134 -110q73 -61 134 -116q64 -58 104 -148q41 -93 41 -203q0 -125 -87 -213t-208 -88h-205q-124 0 -209 88q-86 89 -86 213z" />
<glyph unicode="T" horiz-adv-x="958" d="M35 1284v150h325h238h326v-150h-326v-1284h-238v1284h-325z" />
<glyph unicode="U" horiz-adv-x="991" d="M98 281v426v436v291h232h4v-727v-426v-13q0 -52 36 -86q37 -35 83 -35h84q45 0 80 35q34 34 34 86v13v426v727h8h232v-291v-436v-426q-1 -91 -50 -167q-48 -75 -134 -110q-56 -22 -111 -22h-205q-123 0 -208 88t-85 211z" />
<glyph unicode="V" horiz-adv-x="1067" d="M47 1434h238l252 -971l247 971h238l-367 -1434h-241z" />
<glyph unicode="W" horiz-adv-x="1603" d="M70 1434h237l189 -914l184 905l-2 9h2h235h5v-9l186 -917l188 926h240l-293 -1434h-33h-207h-30l-172 840l-170 -840h-27h-213h-27z" />
<glyph unicode="X" horiz-adv-x="954" d="M86 0l272 717l-272 717h240l151 -404l152 404h239l-272 -717l272 -717h-239l-152 401l-151 -401h-240z" />
<glyph unicode="Y" horiz-adv-x="978" d="M39 1434h240l210 -498l213 498h238l-332 -775v-659h-237v659z" />
<glyph unicode="Z" horiz-adv-x="776" d="M74 0v147l387 1139h-336h-51v148h51h387h190v-148l-389 -1139h336h53v-147h-628z" />
<glyph unicode="[" horiz-adv-x="432" d="M102 0v111v1245v114h301v-114h-186v-1245h186v-111h-301z" />
<glyph unicode="\" horiz-adv-x="1042" d="M78 1149q0 127 87 215t208 88h207q123 0 211 -88t88 -215v-279v-366v-221q0 -125 -88 -213t-211 -88h-162q-123 0 -208 88t-85 213v170h237v-183q0 -78 70 -108q-35 30 -35 82v149h37v-184q0 -22 15 -55q19 -4 32 -4h41q50 0 82 35q33 36 33 85v289q-109 -38 -224 -17 t-186 97q81 -63 194 -70q115 -8 216 37v47q-86 -48 -181 -55q-99 -8 -180 19q-80 26 -137 102q-55 73 -55 180q0 47 -3 129t-3 121zM272 18q81 -65 185 -65h161q121 0 208 89q87 88 87 212v221v369v282q0 113 -77 203q112 -96 112 -242v-278v-367v-221q0 -123 -87 -212 t-206 -89h-163q-129 0 -220 98zM319 1165q0 -14 2 -136q1 -61 1 -140q0 -70 67 -98q-31 22 -31 69q0 18 -2 140t-2 137q0 51 35 86q34 34 84 34h82q28 0 51 -10q-30 37 -84 37h-86q-48 0 -82 -34q-35 -35 -35 -85zM391 1104q0 -15 2 -135t2 -140q0 -32 11 -49q64 -31 141 -7 q78 24 90 83v309q0 39 -14 54q-8 0 -15 1t-14 1h-84q-50 0 -84 -34q-35 -35 -35 -83z" />
<glyph unicode="]" horiz-adv-x="438" d="M27 0v109h190v1249h-190v112h303v-112v-1249v-109h-303z" />
<glyph unicode="_" horiz-adv-x="1067" d="M102 -57h861v-99h-861v99z" />
<glyph unicode="a" horiz-adv-x="1150" d="M51 0l371 1434h242l368 -1434h-239l-107 403h-203l-118 -464h-242l10 32h195l116 463h236l-8 29h-262l-119 -463h-240zM444 612h50l67 275l-22 82zM539 612h96l-51 187zM711 1374h26l367 -1435h-240l-8 32h211z" />
<glyph unicode="b" horiz-adv-x="1056" d="M100 0v6v287v211v78v344v84v77v52v293v2h498q120 0 209 -87q88 -87 88 -208v-129q0 -125 -94 -213q94 -82 94 -215v-78v-211q0 -122 -88 -207q-89 -86 -209 -86h-498zM174 -29h463q118 0 206 86q87 85 87 205v215v82q0 125 -92 211q92 83 92 207v133q0 113 -72 197 q109 -92 109 -230v-131q0 -119 -90 -209q90 -80 90 -215v-82v-209q0 -123 -85 -208q-86 -86 -206 -86h-502v8v26zM332 160h41v94v223v107v123h200q15 0 54 -15q-46 41 -88 41h-207v-121v-108v-225v-119zM332 881h41v90v92v61v117h121h79q21 0 54 -10q-43 39 -88 39h-82h-125 v-121v-62v-90v-116zM414 160h43h82q47 0 82 36q34 35 34 83v225v108q0 32 -14 52q-5 0 -12 1t-19 1h-196v-115v-111v-223v-57zM414 881h43h82q49 0 82 33q34 34 34 83v152q0 33 -14 53q-19 4 -31 4h-82h-114v-121v-59v-92v-53z" />
<glyph unicode="c" horiz-adv-x="1017" d="M92 285v866q0 125 87 213t208 88h201q123 0 210 -88t87 -213v-170h-238v182q0 27 -12 56q-7 0 -17 3q-11 3 -16 3h-82q-49 0 -83 -37t-34 -86v-891q0 -32 13 -55q18 -9 33 -9h83q45 0 80 38t35 87v93h238v-80q0 -127 -87 -215t-210 -88h-201q-121 0 -208 88t-87 215z M242 18q76 -63 182 -63h205q121 0 206 88t85 213v45h38v-80q0 -123 -87 -211t-205 -88h-205q-135 0 -219 96zM328 272q0 -70 69 -110q-28 40 -28 80v895q0 52 34 87q35 36 84 36h78q16 0 47 -13q-39 39 -80 39h-83q-48 0 -85 -35q-36 -35 -36 -88v-891zM721 920v36h199v166 q0 118 -78 207q116 -89 116 -239v-170h-237z" />
<glyph unicode="d" horiz-adv-x="1060" d="M100 0v295v846v293h500q124 0 209 -85q86 -86 86 -208v-846q0 -121 -87 -208t-208 -87h-500zM172 -27h465q122 0 208 86q85 85 85 209v846q0 114 -76 193q113 -86 113 -230v-846q0 -119 -86 -205q-85 -85 -205 -85h-504v32zM346 166h37v1075h172q36 0 61 -14 q-41 41 -98 41h-172v-1102zM418 166h100q57 0 98 38t41 97v836q0 37 -20 63q-21 6 -45 6h-174v-1040z" />
<glyph unicode="e" horiz-adv-x="980" d="M100 0v147v572v147v418v150h238h491v-150h-491v-418h37v389h493v119h37v-151h-491v-357h260v-147h-336v-572h37v543h336v115h39v-152h-336v-506h415v-147h-491h-238zM172 -27h203h493v111h37v-147h-491h-242v36z" />
<glyph unicode="f" horiz-adv-x="921" d="M102 0v150v419v148v567v150h240h492v-150h-492v-420h37v391h489v115h37v-147h-489v-359h262v-145h-336v-719h-240zM176 -25h203v715h336v113h37v-148h-336v-716h-240v36z" />
<glyph unicode="g" horiz-adv-x="1050" d="M92 285v868q0 123 87 211t206 88h207q119 0 206 -88t87 -211v-184h-240v196q0 21 -10 54q-7 0 -17 3q-11 3 -16 3h-82q-49 0 -82 -36q-32 -35 -32 -87v-891q0 -29 12 -53q8 -6 31 -6h81q47 0 81 35t34 83v334h-74v35h74v27h-145v149h145h240v-149v-381q0 -125 -87 -214 t-206 -89h-207q-119 0 -206 89t-87 214zM244 18q76 -61 178 -61h207q123 0 208 87q85 86 85 212v383v115h39v-150v-381q0 -121 -88 -211q-87 -88 -205 -88h-209q-127 0 -215 94zM332 270q0 -76 65 -106q-28 34 -28 80v891q0 53 33 87q34 35 83 35h82q18 0 47 -12 q-30 39 -84 39h-81q-48 0 -83 -35q-34 -34 -34 -84v-895zM719 907v35h203v182q0 113 -78 205q117 -90 117 -237v-185h-242z" />
<glyph unicode="h" horiz-adv-x="1167" d="M102 0v719v145v570h238v-570h37v506h39v-506h334v570h237v-570v-145v-719h-237v657h-334v-718h-238v36h199v715h373v29h-410v-719h-238zM823 -25h203v715v150v530h37v-565v-148v-718h-240v36z" />
<glyph unicode="i" horiz-adv-x="518" d="M100 0v1434h238v-1434h-238zM170 -27h205v1399h37v-1431h-242v32z" />
<glyph unicode="j" horiz-adv-x="983" d="M14 279v79h240v-94q0 -69 68 -108q-31 39 -31 82v57h37v-92q0 -30 12 -51q19 -7 33 -7h80q50 0 85 35q33 33 33 84v201v41v928h240v-928v-41v-186q0 -123 -87 -210t-208 -87h-205q-123 0 -210 87t-87 210zM164 16q87 -65 182 -65h207q121 0 208 88t87 211v186v43v891h35 v-926v-43v-184q0 -123 -85 -211t-208 -88h-207q-128 0 -219 98z" />
<glyph unicode="k" horiz-adv-x="1132" d="M100 594l2 4v836h242v-570q10 16 16 24q4 6 10.5 13.5t8.5 9.5v459h37v-407q5 7 24.5 37.5t51 79t65.5 102.5q117 183 180 252h238l-352 -521l352 -913h-238l-248 618l-73 -81v-600h-240v36h203v598l88 99l-18 49l-105 -121v-598h-242v594h-2zM657 885l334 485h58 l-355 -520l355 -913h-238l-14 36h213z" />
<glyph unicode="l" horiz-adv-x="768" d="M100 0v147v1287h240v-1287h35v1221h35v-1221h266v-147h-336h-240zM172 -27h203h338v113h35v-149h-338h-238v36z" />
<glyph unicode="m" horiz-adv-x="1368" d="M102 0v1434h238l305 -818l14 33l-268 723h21l258 -690l284 752h238v-1434h-238v582l-114 -285h-242l-10 33h213l153 379v120l-188 -471h-238l-116 283v-702h-236v34h203v764l-39 92v-829h-238zM1026 -27h203v1399h35v-1433h-238v34z" />
<glyph unicode="n" horiz-adv-x="1165" d="M102 0v1434h9h229h10l400 -897v55l-349 778h13h10l326 -731v795h237v-1434h-237l-336 754v-815h-240v34h203v863l-37 84v-920h-238zM807 -27h217v1397h37v-1431h-238z" />
<glyph unicode="o" horiz-adv-x="1052" d="M92 283v868q0 128 85 214q86 87 208 87h207q121 0 209 -88t88 -213v-868q0 -125 -88 -213t-209 -88h-207q-123 0 -208 87q-85 86 -85 214zM244 16q78 -63 178 -63h207q121 0 208 89q87 88 87 212v868q0 116 -80 207q114 -91 114 -237v-871q0 -125 -87 -213t-207 -88h-207 q-129 0 -213 96zM328 270q0 -70 69 -110q-32 32 -32 82v895q0 50 35 85t83 35h82q20 0 49 -12q-30 37 -86 37h-82q-46 0 -82 -36t-36 -83v-893zM401 207q0 -25 13 -51q16 -11 32 -11h82q50 0 84 37q35 38 35 88v893q0 32 -12 56q-25 4 -33 4h-82q-50 0 -85 -35 q-34 -34 -34 -88v-893z" />
<glyph unicode="p" horiz-adv-x="1003" d="M102 0v715v131v80v211v297h500q121 0 208 -87t87 -210v-211v-17v-63q0 -120 -86 -200q-85 -79 -209 -79h-262v-567h-238zM176 -27h201v570q72 0 131 -1t135 -1q122 0 207 79q86 80 86 199v66v14v213q0 109 -76 197q111 -95 111 -232v-211v-18v-66q0 -120 -85 -196 t-210 -76h-262v-571h-238v34zM340 715h37v92v92v225v119h119h65h19q25 0 47 -16q-30 43 -84 43h-21h-65h-117v-119v-225v-95v-116zM414 715h43h86q47 0 82 35q34 34 34 81v78v17v225q0 21 -12 49q-5 4 -33 4h-16h-68h-116v-117v-221v-94v-57z" />
<glyph unicode="q" horiz-adv-x="1062" d="M76 279v872q0 123 87 212t206 89h204q123 0 210 -88t87 -213v-872q0 -114 -75 -195q16 -59 63 -80q-18 21 -24 49q71 83 71 199v868q0 129 -76 205q113 -80 113 -238v-868q0 -117 -72 -201q0 -11 9 -20q10 -2 30 -2v-170h-63q-60 0 -113 24q-52 18 -98 70h-193 q-127 0 -215 94q79 -61 181 -61h198q-12 12 -18 29h-15h-204q-119 0 -206 88t-87 209zM313 266q0 -73 68 -106q-29 35 -29 82v893q0 53 34 87q33 33 83 33h80q21 0 49 -12q-33 39 -84 39h-82q-50 0 -85 -35q-34 -34 -34 -84v-897zM387 207q0 -30 14 -55q6 -2 31 -2h82 q48 0 82 34q35 35 35 82v897q0 35 -12 56q-5 4 -33 4h-80q-47 0 -83 -36t-36 -85v-895zM707 -139q35 -27 63 -39q62 -25 115 -25h59v142q5 0 18 -5q11 -4 19 -4v-166h-61q-48 0 -111 25q-57 21 -102 72z" />
<glyph unicode="r" horiz-adv-x="1085" d="M102 0v848v82v209v288v7h500q122 0 208 -86q85 -85 85 -209v-209v-82q0 -86 -42 -155q-40 -66 -116 -105l199 -588h-238l-170 508h-114v-565h-238v34h201v568q10 0 72 -2t71 -2l-8 26h-172v-567h-238zM340 719h37v86v96v223v117h119h82q28 0 51 -12q-38 41 -88 41h-82 h-119v-115v-225v-96v-115zM414 719h45h82q50 0 84 34t34 81v96v225q0 27 -14 47q-25 4 -31 4h-82h-118v-114v-226v-94v-53zM762 -23h213l-201 580q74 37 117 108q43 70 43 156v80v209q0 119 -78 197q115 -86 115 -228v-213v-82q0 -82 -44 -152q-43 -68 -120 -106l203 -583 h-238z" />
<glyph unicode="s" horiz-adv-x="1019" d="M80 283v174h239v-187q0 -80 66 -108q-33 40 -33 82v149h39v-184q0 -32 15 -53q2 0 12 -3q11 -3 16 -3h84q47 0 81 35t34 85q0 175 -152 312q-9 7 -34.5 27.5t-42.5 34.5q-19 15 -41 32.5t-27 21.5q-120 95 -189 199q-67 101 -67 256q0 123 87 211t206 88h174 q123 0 208 -88t85 -211v-172h-238v184q0 31 -12 52q-9 4 -33 4h-49q-49 0 -83 -34t-34 -83q0 -168 127 -289q-166 147 -166 322q0 49 36 84q35 34 85 34h47q18 0 51 -10q-39 39 -88 39h-49q-49 0 -82 -35t-33 -84q0 -96 41 -176t103 -130q59 -47 134 -110q71 -59 134 -116 t103 -147t40 -203q0 -123 -87 -212t-207 -89h-207q-119 0 -206 89t-87 212zM231 18q77 -63 179 -63h206q121 0 206 88t85 213q0 211 -151 362q92 -84 140 -173q50 -92 50 -224q0 -123 -85 -211t-208 -88h-204q-133 0 -218 96zM674 918v34h200v172q0 118 -77 205 q116 -94 116 -237v-174h-239z" />
<glyph unicode="t" horiz-adv-x="1042" d="M37 1284v150h325h238h324v-150h-324v-1284h-238v1225h-251v32h251v27h-325zM434 -27h201v1284h326v113h38v-145h-323v-1286h-242v34z" />
<glyph unicode="u" horiz-adv-x="1064" d="M96 279v426v438v291h236h4v-729v-426v-15q0 -78 65 -106q-30 30 -30 80v14v426v692h30h9v-725v-430v-12q0 -25 10 -51q6 -2 33 -2h82q50 0 83 32q35 33 35 82v15v426v729h4h232v-291v-438v-426q-5 -95 -51 -168q-47 -75 -131 -109q-41 -20 -113 -20h-205q-123 0 -208 87 q-85 86 -85 210zM246 14q79 -61 180 -61h207q69 0 108 20q87 38 136 111q49 74 51 168v426v434v258h37v-291v-434v-430q-1 -87 -53 -164q-50 -73 -132 -108q-58 -25 -108 -25h-207q-129 0 -219 96z" />
<glyph unicode="v" horiz-adv-x="1146" d="M45 1434h238l252 -971l12 55l-219 850h32l205 -795l221 861h236l-367 -1434h-239zM481 -29h211l363 1397h41l-367 -1431h-240z" />
<glyph unicode="w" horiz-adv-x="1677" d="M68 1434h241l183 -914l16 76l-158 772h29l145 -700l154 755v11h2h233h5l-3 -11l189 -915l16 78l-162 782h31h4l-4 -4l144 -709l159 779h238l-291 -1434h-31h-209h-32l-127 629l-142 -690h-26h-213h-25l-4 32h207h27l155 764l-20 103l-174 -838h-29h-211h-25zM1034 -29h2 h209h29l287 1397h45l-295 -1429h-33h-207h-31z" />
<glyph unicode="x" horiz-adv-x="1024" d="M82 0l276 715l-276 719h240l153 -404l12 37l-118 301h24l103 -272l131 338h241l-272 -719l272 -715h-241l-105 274l-129 -335h-237l12 36h194l134 367l-21 61l-153 -403h-240zM631 692l258 676h49l-274 -713l274 -716h-238l-16 36h221z" />
<glyph unicode="y" horiz-adv-x="1056" d="M39 1434h240l213 -496l10 31l-174 403h22l164 -379l188 441h238l-332 -770v-664h-237v664zM442 -27h205v660l316 739h51l-330 -774v-657h-242v32z" />
<glyph unicode="z" horiz-adv-x="862" d="M74 0v150l366 1073h-243h-50v32h13h291l10 29h-338h-49v150h49h385h188h2v-150h-2l-385 -1134h45l381 1105v115h35h2v-147h-2l-366 -1073h243h49v-150h-624zM147 -27h590v115h37v-149h-627v34z" />
<glyph unicode="&#xad;" d="M102 446v168h494v-168h-494z" />
<glyph unicode="&#x2000;" horiz-adv-x="768" />
<glyph unicode="&#x2001;" horiz-adv-x="1536" />
<glyph unicode="&#x2002;" horiz-adv-x="768" />
<glyph unicode="&#x2003;" horiz-adv-x="1536" />
<glyph unicode="&#x2004;" horiz-adv-x="512" />
<glyph unicode="&#x2005;" horiz-adv-x="384" />
<glyph unicode="&#x2006;" horiz-adv-x="256" />
<glyph unicode="&#x2007;" horiz-adv-x="256" />
<glyph unicode="&#x2008;" horiz-adv-x="192" />
<glyph unicode="&#x2009;" horiz-adv-x="307" />
<glyph unicode="&#x200a;" horiz-adv-x="85" />
<glyph unicode="&#x2010;" d="M102 446v168h494v-168h-494z" />
<glyph unicode="&#x2011;" d="M102 446v168h494v-168h-494z" />
<glyph unicode="&#x2012;" d="M102 446v168h494v-168h-494z" />
<glyph unicode="&#x2013;" horiz-adv-x="1232" d="M102 446v168h1024v-168h-1024z" />
<glyph unicode="&#x2014;" horiz-adv-x="2256" d="M102 446v168h2048v-168h-2048z" />
<glyph unicode="&#x2018;" horiz-adv-x="417" d="M66 1010v174l108 250h121l-68 -250h107v-174h-268z" />
<glyph unicode="&#x2019;" horiz-adv-x="1024" d="M76 1151q0 125 88 213t209 88h205q122 0 209 -88t87 -213v-281v-366v-221q0 -123 -87 -212t-209 -89h-162q-123 0 -209 89t-86 212v172h239v-185q0 -72 68 -110q-35 47 -35 82v151h39v-184q0 -35 14 -55q17 -7 35 -7h35q47 0 84 37t37 86v289q-106 -38 -226 -17 q-119 21 -186 97q83 -60 195 -69q111 -9 217 38v47q-83 -50 -180 -57q-102 -8 -182 20q-81 28 -138 103q-55 73 -55 178q0 47 -3 130q-3 82 -3 122zM272 16q73 -61 181 -61h161q123 0 210 88q87 89 87 213v221v367v278q0 124 -77 205q112 -85 112 -235v-281v-371v-219 q0 -125 -85 -213t-208 -88h-164q-121 0 -217 96zM315 1165q0 -75 1 -136t1 -140q0 -60 70 -101q-31 28 -31 74q0 79 -1 139t-1 136q0 52 34 86t83 34h84q16 0 49 -10q-41 41 -88 41h-82q-47 0 -83 -37t-36 -86zM391 829q0 -36 14 -51q62 -29 141 -5t91 85v307q0 27 -12 56 q-4 0 -16 3t-19 3h-82q-48 0 -82 -37q-35 -38 -35 -84v-277z" />
<glyph unicode="&#x201c;" horiz-adv-x="788" d="M86 1010v174l107 250h122l-67 -250h106v-174h-268zM428 1010v174l109 250h120l-67 -250h106v-174h-268z" />
<glyph unicode="&#x201d;" horiz-adv-x="788" d="M92 1260v174h268v-174l-108 -250h-121l68 250h-107zM434 1260v174h268v-174l-106 -250h-123l68 250h-107z" />
<glyph unicode="&#x202f;" horiz-adv-x="307" />
<glyph unicode="&#x205f;" horiz-adv-x="384" />
<glyph unicode="&#x25fc;" horiz-adv-x="1433" d="M0 0v1434h1434v-1434h-1434z" />
</font>
</defs>
</svg>
